<svg xmlns="http://www.w3.org/2000/svg" fill="none" viewBox="0 0 1024 1024" height="1024" width="1024">
<path fill="#F0FFFD" d="M138.016 666.551C152.791 736.617 193.85 758.157 226.954 750.198C290.972 734.806 450.156 733.66 595.513 831.492C788.03 961.066 857.759 831.532 816.489 680.031C775.218 528.53 778.376 383.542 869.565 320.044C960.753 256.545 882.247 116.709 680.215 210.306C549.655 270.791 468.14 237.072 426.807 205.647C387.852 176.025 344.263 144.537 296.27 154.1C238.035 165.708 208.09 208.513 271.573 328.012C361.534 497.356 104.897 509.5 138.016 666.551Z"></path>
<path fill="#3DA193" d="M521.387 650.284L526.814 656.719L525.182 706.983L304.804 751.136C303.178 751.463 301.504 751.467 299.877 751.147C298.249 750.827 296.701 750.19 295.32 749.271C293.939 748.353 292.753 747.171 291.829 745.794C290.905 744.417 290.261 742.871 289.935 741.245L225.47 419.486C225.141 417.861 225.136 416.188 225.456 414.561C225.776 412.935 226.414 411.388 227.333 410.009C228.253 408.63 229.436 407.446 230.815 406.526C232.194 405.605 233.74 404.967 235.367 404.646L470.101 357.586L459.828 393.382C459.828 393.382 478.613 428.808 482.249 434.557L464.975 509.264L515.994 559.784L499.815 624.579L521.387 650.284Z"></path>
<path fill="white" d="M487.68 569.058L305.435 605.58C304.88 605.691 304.521 606.231 304.632 606.785L310.012 633.634C310.123 634.188 310.663 634.548 311.218 634.437L493.463 597.915C494.017 597.803 494.377 597.264 494.265 596.709L488.885 569.861C488.774 569.306 488.234 568.947 487.68 569.058Z"></path>
<path fill="white" d="M499.815 624.579L521.385 650.285L327.567 689.112C325.926 689.437 324.223 689.099 322.83 688.172C321.437 687.245 320.467 685.805 320.132 684.166L316.843 667.695C316.676 666.882 316.672 666.044 316.831 665.229C316.99 664.415 317.308 663.639 317.768 662.948C318.228 662.257 318.82 661.664 319.51 661.202C320.2 660.741 320.974 660.421 321.789 660.26L499.815 624.579Z"></path>
<path fill="#3DA193" d="M893.787 362.313L808.981 679.286C808.108 682.516 805.993 685.27 803.097 686.946C800.2 688.622 796.758 689.084 793.523 688.23L543.16 621.242L570.018 579.891L566.994 569.307L557.556 536.319L557.563 536.289L601.954 487.047L577.301 414.736L626.08 357.917L623.878 306.09L651.043 284.274L884.881 346.832C888.112 347.708 890.864 349.83 892.534 352.732C894.203 355.634 894.654 359.079 893.787 362.313V362.313Z"></path>
<path fill="white" d="M838.625 367.146L793.065 354.954C782.139 352.03 770.911 358.518 767.987 369.444L755.796 415.003C752.872 425.93 759.359 437.158 770.286 440.081L815.845 452.273C826.772 455.197 838 448.709 840.923 437.783L853.115 392.224C856.039 381.297 849.551 370.069 838.625 367.146Z"></path>
<path fill="white" d="M609.029 556.612L604.708 572.842C604.271 574.458 603.213 575.836 601.765 576.674C600.316 577.512 598.595 577.742 596.977 577.315L566.993 569.306L557.555 536.318L604.586 548.891C605.387 549.102 606.138 549.47 606.796 549.974C607.454 550.477 608.006 551.106 608.419 551.824C608.832 552.542 609.099 553.335 609.204 554.157C609.308 554.979 609.249 555.813 609.029 556.612Z"></path>
<path fill="#21887A" d="M511.454 337.933C510.26 336.631 509.617 334.917 509.661 333.152C509.705 331.386 510.432 329.706 511.69 328.466L558.121 280.817C560.895 277.971 565.402 277.903 568.036 280.669L571.708 284.524C574.341 287.289 574.042 291.775 571.049 294.391L520.946 338.185C519.636 339.373 517.918 340.011 516.149 339.964C514.381 339.917 512.699 339.189 511.454 337.933V337.933Z"></path>
<path fill="#21887A" d="M484.031 321.591C483.514 321.353 483.049 321.015 482.663 320.597C482.277 320.179 481.977 319.689 481.78 319.155C481.583 318.622 481.493 318.054 481.515 317.485C481.537 316.917 481.672 316.358 481.91 315.841L499.307 276.171C499.795 275.037 500.713 274.143 501.859 273.686C503.006 273.228 504.287 273.244 505.422 273.73L508.623 275.178C509.168 275.431 509.655 275.794 510.053 276.244C510.451 276.695 510.752 277.223 510.935 277.795C511.119 278.367 511.182 278.971 511.12 279.569C511.059 280.167 510.874 280.746 510.577 281.268L489.981 319.492C489.434 320.526 488.518 321.315 487.416 321.704C486.314 322.093 485.105 322.053 484.031 321.591V321.591Z"></path>
<path fill="#21887A" d="M455.154 328.016C451.505 328.657 448.002 325.553 447.213 320.979L433.212 239.761C432.376 234.91 434.905 230.299 438.776 229.619L444.171 228.671C448.042 227.991 451.698 231.515 452.21 236.423L460.816 318.589C461.302 323.216 458.804 327.375 455.154 328.016Z"></path>
</svg>
