<?xml version="1.0" encoding="UTF-8"?>
<svg id="_图层_1" data-name="图层 1" xmlns="http://www.w3.org/2000/svg" viewBox="0 0 200 200">
  <defs>
    <style>
      .cls-1 {
        fill: #fff;
      }

      .cls-2 {
        fill: #f44400;
      }
    </style>
  </defs>
  <path class="cls-2" d="M33.3,22.2v126.4c0,16.1,14.9,29.2,33.3,29.2h66.7c18.4,0,33.3-13.1,33.3-29.2V22.2H33.3Zm46.9,94.5h-5.7l-12-19.6h-.2v19.6h-6.8v-33.4h5.7l12,19.4h.2v-19.4h6.8v33.4Zm23.6-26.5h-12.2v6.6h11.4v6.2h-11.4v6.8h12.2v6.9h-19.3v-33.4h19.3v6.9Zm33.3,26.5h-6.8l-4.8-20.8h-.2l-4.8,20.8h-6.8l-7.4-33.3h7.4l3.8,22.5h.2l4.7-22.5h5.7l4.7,22.5h.2l3.8-22.5h7.4l-7.1,33.3Z"/>
  <polygon class="cls-1" points="144.4 83.3 137.1 116.7 130.3 116.7 125.6 95.9 125.4 95.9 120.6 116.7 113.9 116.7 106.5 83.3 113.9 83.3 117.7 105.9 117.9 105.9 122.6 83.3 128.3 83.3 133.1 105.9 133.2 105.9 137 83.3 144.4 83.3"/>
  <polygon class="cls-1" points="91.6 90.2 91.6 96.8 103.1 96.8 103.1 103 91.6 103 91.6 109.8 103.8 109.8 103.8 116.7 84.5 116.7 84.5 83.3 103.8 83.3 103.8 90.2 91.6 90.2"/>
  <polygon class="cls-1" points="80.2 83.3 80.2 116.7 74.5 116.7 62.5 97.1 62.4 97.1 62.4 116.7 55.6 116.7 55.6 83.3 61.3 83.3 73.2 102.7 73.4 102.7 73.4 83.3 80.2 83.3"/>
  <rect class="cls-2" x="33.3" width="133.3" height="28.5"/>
</svg>